#tb 0: 1/25
0,          0,          0,        1,  1382400, 0x7119bbe5
0,          3,          3,        1,  1382400, 0xbeda2c83
0,          6,          6,        1,  1382400, 0x2cbe6669
0,          7,          7,        1,  1382400, 0x3cee2619
0,          8,          8,        1,  1382400, 0x93e388e3
0,          9,          9,        1,  1382400, 0x5e286889
0,         10,         10,        1,  1382400, 0x4718f29c
0,         11,         11,        1,  1382400, 0xbedf4dbd
